<?xml version="1.0" encoding="UTF-8" standalone="no"?>
<svg width="37px" height="58px" viewBox="0 0 37 58" version="1.1" xmlns="http://www.w3.org/2000/svg" xmlns:xlink="http://www.w3.org/1999/xlink">
    <!-- Generator: Sketch 41.2 (35397) - http://www.bohemiancoding.com/sketch -->
    <title>Page 1</title>
    <desc>Created with Sketch.</desc>
    <defs>
        <polygon id="path-1" points="33.5523 0.319 0.5443 0.319 0.5443 30.7337 33.5523 30.7337 33.5523 0.319"></polygon>
        <polygon id="path-3" points="36.1138 23 0 23 0 0.1984 36.1138 0.1984 36.1138 23"></polygon>
    </defs>
    <g id="Page-1" stroke="none" stroke-width="1" fill="none" fill-rule="evenodd">
        <g transform="translate(0.000000, -1.000000)">
            <g id="Group-3" transform="translate(1.000000, 0.680900)">
                <mask id="mask-2" fill="white">
                    <use xlink:href="#path-1"></use>
                </mask>
                <g id="Clip-2"></g>
                <path d="M7.0993,13.1927 C7.0993,19.1337 11.1073,23.1427 16.9543,23.1427 L17.0493,23.1427 C22.8963,23.1427 26.9983,19.1337 26.9983,13.1927 L26.9983,7.5807 L7.0993,7.5807 L7.0993,13.1927 Z M33.5523,0.3187 L33.5523,13.1927 C33.5523,23.5667 26.4323,30.7337 17.1433,30.7337 L17.0493,30.7337 C7.7593,30.7337 0.5443,23.5667 0.5443,13.1927 L0.5443,0.3187 L33.5523,0.3187 Z" id="Fill-1" fill="#020302" mask="url(#mask-2)"></path>
            </g>
            <g id="Group-6" transform="translate(0.000000, 35.680900)">
                <mask id="mask-4" fill="white">
                    <use xlink:href="#path-3"></use>
                </mask>
                <g id="Clip-5"></g>
                <polygon id="Fill-4" fill="#020302" mask="url(#mask-4)" points="29.7518 0.1984 25.5018 13.2814 21.2528 0.1984 21.2238 0.1984 14.8908 0.1984 14.8618 0.1984 10.6118 13.2814 6.3618 0.1984 -0.0002 0.1984 7.4068 23.0004 7.4548 23.0004 13.7688 23.0004 13.8168 23.0004 18.0568 9.9474 22.2968 23.0004 22.3448 23.0004 28.6588 23.0004 28.7078 23.0004 36.1138 0.1984"></polygon>
            </g>
        </g>
    </g>
</svg>